<svg width="605" height="70" viewBox="0 0 605 70" fill="none" xmlns="http://www.w3.org/2000/svg">
<g clip-path="url(#clip0_482_69293)">
<path d="M11.8775 69.9993C18.4312 69.9993 23.7501 64.7727 23.7501 58.3327V46.666H11.8775C5.32382 46.666 0.00488281 51.8927 0.00488281 58.3327C0.00488281 64.7727 5.32382 69.9993 11.8775 69.9993Z" fill="#181717"/>
<path d="M0.00488281 35.0007C0.00488281 28.5607 5.32382 23.334 11.8775 23.334H23.7501V46.6673H11.8775C5.32382 46.6673 0.00488281 41.4407 0.00488281 35.0007Z" fill="#181717"/>
<path d="M0.00488281 11.6667C0.00488281 5.22667 5.32382 0 11.8775 0H23.7501V23.3333H11.8775C5.32382 23.3333 0.00488281 18.1067 0.00488281 11.6667Z" fill="#181717"/>
<path d="M23.75 0H35.6226C42.1763 0 47.4952 5.22667 47.4952 11.6667C47.4952 18.1067 42.1763 23.3333 35.6226 23.3333H23.75V0Z" fill="#181717"/>
<path d="M47.4952 35.0007C47.4952 41.4407 42.1763 46.6673 35.6226 46.6673C29.0689 46.6673 23.75 41.4407 23.75 35.0007C23.75 28.5607 29.0689 23.334 35.6226 23.334C42.1763 23.334 47.4952 28.5607 47.4952 35.0007Z" fill="#181717"/>
</g>
<path d="M131.327 0C134.748 0 137.87 0.296587 140.694 0.883575C143.517 1.47056 145.929 2.43446 147.94 3.77527C149.952 5.11607 151.513 6.89557 152.623 9.11995C153.734 11.3443 154.286 14.0877 154.286 17.3563C154.286 20.8844 153.461 23.8256 151.817 26.1797C150.174 28.5338 147.737 30.4616 144.52 31.9631C148.949 33.205 152.255 35.38 154.438 38.4817C156.621 41.5835 157.712 45.3279 157.712 49.7087C157.712 53.2368 157.008 56.2953 155.599 58.878C154.191 61.4608 152.293 63.5678 149.907 65.199C147.521 66.8364 144.805 68.0412 141.753 68.826C138.682 69.6107 135.516 70.0061 132.343 69.9999H97.499V0H131.327ZM129.316 28.3299C132.133 28.3299 134.449 27.675 136.264 26.3712C138.079 25.0613 138.987 22.942 138.98 20.0009C138.98 18.3697 138.676 17.0288 138.073 15.9846C137.47 14.9404 136.664 14.1186 135.655 13.5316C134.646 12.9446 133.491 12.5368 132.184 12.3082C130.839 12.0796 129.475 11.9622 128.104 11.9684H113.312V28.3423L129.316 28.3299V28.3299ZM130.223 58.0315C131.715 58.0377 133.199 57.8894 134.653 57.5928C136.061 57.2963 137.305 56.8081 138.377 56.1223C139.45 55.4364 140.306 54.5034 140.947 53.3295C141.582 52.1555 141.906 50.6478 141.906 48.8189C141.906 45.229 140.865 42.6586 138.784 41.1263C136.702 39.5877 133.948 38.8216 130.528 38.8216H113.312V58.0377L130.223 58.0315V58.0315ZM177.6 56.561C179.744 58.5876 182.835 59.601 186.864 59.601C189.751 59.601 192.233 58.8966 194.314 57.494C196.395 56.0914 197.671 54.6023 198.14 53.0329H210.724C208.712 59.1128 205.622 63.4566 201.459 66.0702C197.296 68.6838 192.264 69.9938 186.357 69.9938C182.264 69.9938 178.57 69.3573 175.283 68.0845C171.996 66.8117 169.211 64.9951 166.926 62.6409C164.642 60.2868 162.878 57.4816 161.64 54.213C160.403 50.9444 159.781 47.3484 159.781 43.431C159.781 39.6434 160.416 36.1152 161.691 32.8466C162.967 29.578 164.781 26.7543 167.129 24.3693C169.477 21.9843 172.282 20.1059 175.537 18.7342C178.793 17.3625 182.403 16.6767 186.363 16.6767C190.792 16.6767 194.65 17.5108 197.944 19.1791C201.231 20.8474 203.934 23.0841 206.047 25.8955C208.16 28.7068 209.689 31.9075 210.628 35.5035C211.568 39.0996 211.904 42.8563 211.637 46.7799H174.084C174.281 51.2719 175.455 54.5405 177.6 56.561ZM193.762 29.8993C192.049 28.0704 189.447 27.1559 185.957 27.1559C183.672 27.1559 181.775 27.5329 180.271 28.2805C178.761 29.0343 177.555 29.9611 176.648 31.0733C175.74 32.1855 175.106 33.3595 174.738 34.6014C174.37 35.8434 174.148 36.9556 174.084 37.9318H197.341C196.662 34.4099 195.469 31.7283 193.762 29.8993V29.8993ZM171.635 3.55283H200.691V11.3999H171.635V3.55283V3.55283Z" fill="#181717"/>
<path d="M261.725 1.15119C261.725 0.626958 261.935 0.31525 262.462 0.31525C266.462 0.212528 274.244 0 281.926 0C302.336 0 309.908 11.2994 309.908 22.8114C309.908 39.4488 296.969 46.6677 281.082 46.6677H274.454V68.1188C274.454 68.6431 274.244 68.9548 273.613 68.9548H262.566C262.039 68.9548 261.725 68.7458 261.725 68.2216V1.15119ZM274.454 35.471C276.242 35.5772 277.609 35.5772 281.082 35.5772C289.918 35.5772 297.39 32.6479 297.39 23.1266C297.39 15.4898 291.919 10.9877 282.239 10.9877C278.557 10.9877 275.611 11.094 274.454 11.1967V35.471Z" fill="#181717"/>
<path d="M338.1 26.474C332.523 26.474 330.632 28.7764 330.632 30.9725C330.632 33.1687 332.209 34.8441 338.944 37.4582C350.939 41.854 355.042 46.5615 355.042 53.9893C355.042 63.8259 347.256 69.9998 334.318 69.9998C328.11 69.9998 322.64 68.8486 319.484 67.0705C318.957 66.7552 318.747 66.5462 318.747 65.9193V55.98C318.747 55.4558 319.167 55.2468 319.587 55.4558C324.111 58.3851 329.898 59.6426 334.631 59.6426C340.101 59.6426 342.733 57.7582 342.733 55.0378C342.733 52.3175 340.735 50.7483 334.211 48.1307C322.743 43.9438 318.64 39.2363 318.64 31.7022C318.64 23.7501 325.161 16.3223 338.314 16.3223C344.414 16.3223 349.044 17.1582 351.569 18.4157C352.096 18.7309 352.2 19.1489 352.2 19.6731V28.8791C352.2 29.4034 351.883 29.7151 351.252 29.5061C347.99 27.7279 342.73 26.4705 338.103 26.4705L338.1 26.474Z" fill="#181717"/>
<path d="M422.512 52.6509L416.965 69.1986C416.763 69.7995 416.46 69.9998 415.855 69.9998H405.772C405.167 69.9998 404.966 69.6976 405.065 68.9983L425.837 10.2293C426.24 9.22773 426.543 8.22278 426.745 4.81411C426.745 4.41349 426.946 4.11133 427.349 4.11133H441.365C441.871 4.11133 441.97 4.20979 442.072 4.71226L465.366 69.0967C465.465 69.6976 465.366 69.9998 464.762 69.9998H453.47C452.965 69.9998 452.664 69.7995 452.463 69.3989L446.615 52.6509H422.515H422.512ZM443.386 41.7187C441.27 35.0983 436.528 21.1581 434.514 14.1404H434.412C432.797 20.8593 428.766 32.5927 425.741 41.7187H443.386Z" fill="#181717"/>
<path d="M472.02 6.91919C472.02 2.80774 474.945 0 478.976 0C483.312 0 485.834 2.90959 485.834 6.91919C485.834 10.9288 483.11 13.8384 478.877 13.8384C474.645 13.8384 472.02 11.0306 472.02 6.91919ZM472.726 21.26C472.726 20.7576 473.03 20.5573 473.532 20.5573H484.22C484.824 20.5573 485.025 20.6591 485.025 21.26V69.1987C485.025 69.7996 484.824 69.9999 484.117 69.9999H473.73C473.023 69.9999 472.723 69.6978 472.723 69.0968V21.26H472.726Z" fill="#181717"/>
<g clip-path="url(#clip1_482_69293)">
<path d="M604.903 38.6312C604.512 34.9162 602.949 31.4205 600.441 28.6488C601.226 26.2921 601.499 23.7954 601.24 21.3255C600.981 18.8556 600.197 16.4688 598.939 14.3262C597.076 11.0851 594.229 8.51834 590.81 6.99764C587.392 5.47694 583.577 5.08023 579.917 5.86448C578.266 4.00664 576.237 2.5226 573.966 1.5112C571.694 0.499802 569.233 -0.0147353 566.746 0.000321137C563.004 -0.00884365 559.356 1.16883 556.328 3.3638C553.3 5.55876 551.048 8.65712 549.897 12.2117C547.46 12.7099 545.157 13.722 543.143 15.1811C541.129 16.6403 539.451 18.5119 538.22 20.6708C536.341 23.9041 535.54 27.6479 535.93 31.3655C536.32 35.0818 537.883 38.5788 540.392 41.3518C539.607 43.7085 539.334 46.2052 539.592 48.6752C539.852 51.1451 540.635 53.5312 541.893 55.6744C543.756 58.9155 546.603 61.4816 550.022 63.003C553.441 64.5237 557.256 64.9204 560.915 64.1368C562.566 65.9946 564.595 67.4787 566.866 68.4901C569.138 69.5008 571.599 70.016 574.086 70.0003C577.83 70.0101 581.479 68.8318 584.509 66.6355C587.538 64.4399 589.79 61.3389 590.94 57.7823C593.378 57.2835 595.681 56.2721 597.695 54.8129C599.708 53.3538 601.387 51.4822 602.618 49.3232C604.494 46.0913 605.294 42.3475 604.902 38.6325L604.903 38.6312ZM584.152 10.0711C586.645 10.1785 589.056 10.9915 591.103 12.4166C593.15 13.8418 594.748 15.8194 595.71 18.1178C596.672 20.4169 596.96 22.9417 596.537 25.3973C596.435 25.3338 596.253 25.2251 596.123 25.1505L582.166 17.0999C581.818 16.8969 581.422 16.7902 581.02 16.7902C580.617 16.7902 580.221 16.8969 579.873 17.0999L562.833 26.9252V20.1223C562.831 20.0869 562.837 20.0529 562.852 20.0215C562.867 19.99 562.889 19.9625 562.917 19.9416L577.027 11.8137C579.188 10.5693 581.66 9.96506 584.153 10.0718L584.152 10.0711ZM570.419 26.247L578.008 30.6212V39.3729L570.419 43.7478L562.829 39.3729V30.6238L570.419 26.247ZM553.609 17.6877C553.61 15.1955 554.323 12.7551 555.663 10.6524C557.003 8.54976 558.916 6.87195 561.176 5.81472C563.437 4.75816 565.952 4.36603 568.427 4.68418C570.903 5.00299 573.236 6.01897 575.154 7.61364C575.048 7.6719 574.863 7.77337 574.74 7.848L560.783 15.8986C560.433 16.0976 560.142 16.3857 559.94 16.7339C559.738 17.0822 559.633 17.4776 559.635 17.8802L559.626 37.5229L553.725 34.1208C553.694 34.1058 553.667 34.0829 553.647 34.0547C553.627 34.0266 553.614 33.9938 553.61 33.9591V17.6864L553.609 17.6877ZM540.891 32.9085C539.99 29.5502 540.459 25.972 542.195 22.9594C543.728 20.2997 546.148 18.2638 549.033 17.2079C549.033 17.3277 549.027 17.5404 549.027 17.6877V33.7896C549.024 34.1922 549.129 34.5876 549.33 34.9358C549.531 35.2841 549.822 35.5728 550.172 35.7711L567.212 45.5951L561.313 48.9966C561.284 49.0156 561.251 49.0273 561.216 49.0306C561.181 49.0339 561.146 49.028 561.114 49.0149L547.003 40.8727C543.99 39.1307 541.792 36.266 540.891 32.9085ZM553.845 59.4922C550.481 58.5921 547.611 56.3965 545.867 53.3865C544.327 50.7307 543.772 47.6192 544.299 44.5955C544.403 44.6577 544.584 44.7683 544.714 44.843L558.671 52.8936C559.019 53.0965 559.414 53.2039 559.818 53.2039C560.221 53.2039 560.616 53.0965 560.964 52.8936L578.004 43.0683V49.8718C578.006 49.9065 578 49.9412 577.985 49.9726C577.97 50.0041 577.948 50.0316 577.92 50.0525L563.811 58.1876C560.793 59.923 557.209 60.393 553.844 59.4929L553.845 59.4922ZM587.216 52.3057C587.211 55.7811 585.828 59.1139 583.368 61.572C580.908 64.0314 577.572 65.416 574.091 65.4232C571.018 65.4277 568.042 64.3535 565.682 62.387C565.788 62.3294 565.975 62.2273 566.097 62.1526L580.054 54.102C580.405 53.903 580.695 53.6143 580.897 53.2654C581.099 52.9171 581.204 52.5211 581.201 52.1192V32.4705L587.101 35.872C587.131 35.8877 587.158 35.9099 587.179 35.9381C587.198 35.9662 587.211 35.9989 587.216 36.033V52.3057ZM600.353 41.5954C600.14 44.079 599.223 46.4514 597.709 48.4329C596.195 50.4152 594.147 51.9254 591.804 52.7875V36.2045C591.807 35.8032 591.703 35.4078 591.503 35.0596C591.303 34.7113 591.014 34.4226 590.665 34.2229L573.624 24.3976L579.524 20.9975C579.553 20.9779 579.586 20.9667 579.621 20.9635C579.656 20.9602 579.69 20.9661 579.722 20.9798L593.833 29.1142C595.995 30.3613 597.757 32.1975 598.911 34.4082C600.066 36.6189 600.566 39.1111 600.353 41.5954H600.353Z" fill="#181717"/>
</g>
<defs>
<clipPath id="clip0_482_69293">
<rect width="47.5" height="70" fill="white"/>
</clipPath>
<clipPath id="clip1_482_69293">
<rect width="69.1667" height="70" fill="white" transform="translate(535.833)"/>
</clipPath>
</defs>
</svg>
