<svg width="23" height="30" viewBox="0 0 23 30" fill="none" xmlns="http://www.w3.org/2000/svg">
<g clip-path="url(#clip0_603_81816)">
<path d="M3.22566 0H0.0346845C0.0346845 0 0 0 0 0.0345224V12.7733C0 12.7733 0 12.8078 0.0346845 12.8078H3.22566L3.26034 12.7733V0.0345224C3.26034 0.0345224 3.26034 0 3.22566 0Z" fill="#F4F4F4"/>
<path d="M20.4984 1.41542C19.2497 0.466053 17.9144 0 16.4576 0H12.4516C10.9775 0 9.6248 0.483314 8.34147 1.44994C7.83855 1.88147 7.47436 2.26122 7.24891 2.57192C6.3818 3.74569 5.94824 5.04028 5.94824 6.40391C5.94824 8.09551 6.57256 9.59724 7.8212 10.8918C8.35881 11.4097 8.87908 11.7894 9.382 12.0483C10.3185 12.5662 11.4631 12.8078 12.7811 12.8078H15.9721C17.3594 12.8078 18.5214 12.5489 19.4405 12.0483C19.8394 11.8585 20.325 11.5132 20.8799 11.0127C21.4522 10.443 21.799 10.0115 21.9378 9.71807C22.5621 8.69966 22.8743 7.6122 22.8743 6.47296V6.33487C22.8743 4.88493 22.3713 3.53855 21.3655 2.313C21.0013 1.89873 20.7065 1.60529 20.4637 1.43268L20.4984 1.41542ZM19.6486 6.40391C19.6486 7.47411 19.163 8.35443 18.1745 9.06214C17.5849 9.42463 17.0126 9.59724 16.423 9.59724H12.4689C11.4631 9.59724 10.596 9.16571 9.86759 8.31991C9.43403 7.73303 9.20858 7.12888 9.20858 6.52474V6.31761C9.20858 5.42002 9.6248 4.60875 10.4399 3.90104C11.0815 3.43498 11.7579 3.19333 12.4516 3.19333H16.4056C17.3247 3.19333 18.1398 3.57307 18.8509 4.31531C19.3711 4.95397 19.6313 5.62716 19.6313 6.38665V6.42117L19.6486 6.40391Z" fill="#F4F4F4"/>
<path d="M19.6836 30.0009H22.8746C22.8746 30.0009 22.9093 30.0009 22.9093 29.9663V17.2103C22.9093 17.2103 22.9093 17.1758 22.8746 17.1758H19.6836L19.6489 17.2103V29.9663C19.6489 29.9663 19.6489 30.0009 19.6836 30.0009Z" fill="#F4F4F4"/>
<path d="M2.41055 28.5838C3.6592 29.5332 4.99455 29.9992 6.45129 29.9992H10.4574C11.9314 29.9992 13.2841 29.5159 14.5675 28.5493C15.0704 28.1178 15.4346 27.738 15.66 27.4273C16.5271 26.2535 16.9607 24.959 16.9607 23.5953C16.9607 21.9037 16.3364 20.402 15.0877 19.1074C14.5501 18.5896 14.0299 18.2098 13.5269 17.9509C12.5904 17.4331 11.4459 17.1914 10.1278 17.1914H6.93688C5.5495 17.1914 4.38757 17.4503 3.46843 17.9509C3.06956 18.1408 2.58398 18.486 2.02902 18.9866C1.45673 19.5562 1.10989 19.9877 0.971149 20.2812C0.346828 21.2996 0.034668 22.387 0.034668 23.5263V23.6644C0.034668 25.1143 0.537593 26.4607 1.54344 27.6862C1.90763 28.1005 2.20245 28.3939 2.44524 28.5665L2.41055 28.5838ZM3.26032 23.5953C3.26032 22.5251 3.74591 21.6448 4.73441 20.9371C5.32405 20.5746 5.89634 20.402 6.48598 20.402H10.44C11.4459 20.402 12.313 20.8335 13.0413 21.6793C13.4749 22.2662 13.7003 22.8703 13.7003 23.4745V23.6816C13.7003 24.5792 13.2841 25.3905 12.4691 26.0982C11.8274 26.5642 11.151 26.8059 10.4574 26.8059H6.48598C5.56684 26.8059 4.75176 26.4262 4.04072 25.6839C3.52046 25.0453 3.26032 24.3721 3.26032 23.6126V23.5781V23.5953Z" fill="#F4F4F4"/>
</g>
<defs>
<clipPath id="clip0_603_81816">
<rect width="22.9091" height="30" fill="white"/>
</clipPath>
</defs>
</svg>
