<svg width="23" height="30" viewBox="0 0 23 30" fill="none" xmlns="http://www.w3.org/2000/svg">
<g clip-path="url(#clip0_603_81828)">
<path d="M3.22566 0H0.0346845C0.0346845 0 0 0 0 0.0345224V12.7733C0 12.7733 0 12.8078 0.0346845 12.8078H3.22566L3.26034 12.7733V0.0345224C3.26034 0.0345224 3.26034 0 3.22566 0Z" fill="#F4F4F4"/>
<path d="M20.4984 1.41542C19.2497 0.466053 17.9144 0 16.4576 0H12.4516C10.9775 0 9.6248 0.483314 8.34147 1.44994C7.83855 1.88147 7.47436 2.26122 7.24891 2.57192C6.3818 3.74569 5.94824 5.04028 5.94824 6.40391C5.94824 8.09551 6.57256 9.59724 7.8212 10.8918C8.35881 11.4097 8.87908 11.7894 9.382 12.0483C10.3185 12.5662 11.4631 12.8078 12.7811 12.8078H15.9721C17.3594 12.8078 18.5214 12.5489 19.4405 12.0483C19.8394 11.8585 20.325 11.5132 20.8799 11.0127C21.4522 10.443 21.799 10.0115 21.9378 9.71807C22.5621 8.69966 22.8743 7.6122 22.8743 6.47296V6.33487C22.8743 4.88493 22.3713 3.53855 21.3655 2.313C21.0013 1.89873 20.7065 1.60529 20.4637 1.43268L20.4984 1.41542ZM19.6486 6.40391C19.6486 7.47411 19.163 8.35443 18.1745 9.06214C17.5849 9.42463 17.0126 9.59724 16.423 9.59724H12.4689C11.4631 9.59724 10.596 9.16571 9.86759 8.31991C9.43403 7.73303 9.20858 7.12888 9.20858 6.52474V6.31761C9.20858 5.42002 9.6248 4.60875 10.4399 3.90104C11.0815 3.43498 11.7579 3.19333 12.4516 3.19333H16.4056C17.3247 3.19333 18.1398 3.57307 18.8509 4.31531C19.3711 4.95397 19.6313 5.62716 19.6313 6.38665V6.42117L19.6486 6.40391Z" fill="#F4F4F4"/>
<path d="M19.6831 30.0009H22.8741C22.8741 30.0009 22.9088 30.0009 22.9088 29.9663V17.2103C22.9088 17.2103 22.9088 17.1758 22.8741 17.1758H19.6831L19.6484 17.2103V29.9663C19.6484 29.9663 19.6484 30.0009 19.6831 30.0009Z" fill="#F4F4F4"/>
<path d="M2.41104 28.5838C3.65968 29.5332 4.99504 29.9992 6.45178 29.9992H10.4578C11.9319 29.9992 13.2846 29.5159 14.5679 28.5493C15.0709 28.1178 15.4351 27.738 15.6605 27.4273C16.5276 26.2535 16.9612 24.959 16.9612 23.5953C16.9612 21.9037 16.3369 20.402 15.0882 19.1074C14.5506 18.5896 14.0303 18.2098 13.5274 17.9509C12.5909 17.4331 11.4463 17.1914 10.1283 17.1914H6.93737C5.54999 17.1914 4.38806 17.4503 3.46892 17.9509C3.07005 18.1408 2.58446 18.486 2.02951 18.9866C1.45722 19.5562 1.11037 19.9877 0.971637 20.2812C0.347316 21.2996 0.0351562 22.387 0.0351562 23.5263V23.6644C0.0351562 25.1143 0.538081 26.4607 1.54393 27.6862C1.90812 28.1005 2.20294 28.3939 2.44573 28.5665L2.41104 28.5838ZM3.26081 23.5953C3.26081 22.5251 3.74639 21.6448 4.7349 20.9371C5.32454 20.5746 5.89683 20.402 6.48647 20.402H10.4405C11.4463 20.402 12.3135 20.8335 13.0418 21.6793C13.4754 22.2662 13.7008 22.8703 13.7008 23.4745V23.6816C13.7008 24.5792 13.2846 25.3905 12.4695 26.0982C11.8279 26.5642 11.1515 26.8059 10.4578 26.8059H6.48647C5.56733 26.8059 4.75224 26.4262 4.04121 25.6839C3.52095 25.0453 3.26081 24.3721 3.26081 23.6126V23.5781V23.5953Z" fill="#F4F4F4"/>
</g>
<defs>
<clipPath id="clip0_603_81828">
<rect width="22.9091" height="30" fill="white"/>
</clipPath>
</defs>
</svg>
