<svg width="17" height="22" viewBox="0 0 17 22" fill="none" xmlns="http://www.w3.org/2000/svg">
<g clip-path="url(#clip0_605_81852)">
<path d="M2.36548 0H0.0254353C0.0254353 0 0 0 0 0.0253165V9.36709C0 9.36709 0 9.39241 0.0254353 9.39241H2.36548L2.39092 9.36709V0.0253165C2.39092 0.0253165 2.39092 0 2.36548 0Z" fill="#F4F4F4"/>
<path d="M15.0324 1.03797C14.1167 0.341772 13.1375 0 12.0692 0H9.13142C8.05042 0 7.05844 0.35443 6.11734 1.06329C5.74853 1.37975 5.48146 1.65823 5.31613 1.88608C4.68025 2.74684 4.3623 3.6962 4.3623 4.6962C4.3623 5.93671 4.82014 7.03798 5.73581 7.98734C6.13006 8.36709 6.51159 8.64557 6.8804 8.83544C7.56715 9.21519 8.40651 9.39241 9.37305 9.39241H11.7131C12.7305 9.39241 13.5826 9.20253 14.2566 8.83544C14.5491 8.6962 14.9052 8.44304 15.3122 8.07595C15.7319 7.65823 15.9862 7.34177 16.088 7.12658C16.5458 6.37975 16.7747 5.58228 16.7747 4.74684V4.64557C16.7747 3.58228 16.4059 2.59494 15.6683 1.6962C15.4012 1.39241 15.185 1.17722 15.007 1.05063L15.0324 1.03797ZM14.4092 4.6962C14.4092 5.48101 14.0531 6.12658 13.3282 6.64557C12.8958 6.91139 12.4762 7.03798 12.0438 7.03798H9.14414C8.40651 7.03798 7.77063 6.72152 7.23649 6.10127C6.91855 5.67089 6.75322 5.22785 6.75322 4.78481V4.63291C6.75322 3.97468 7.05844 3.37975 7.65617 2.86076C8.12673 2.51899 8.62271 2.34177 9.13142 2.34177H12.031C12.7051 2.34177 13.3028 2.62025 13.8242 3.16456C14.2058 3.63291 14.3965 4.12658 14.3965 4.68354V4.70886L14.4092 4.6962Z" fill="#F4F4F4"/>
<path d="M14.4346 22.0008H16.7747C16.7747 22.0008 16.8001 22.0008 16.8001 21.9755V12.621C16.8001 12.621 16.8001 12.5957 16.7747 12.5957H14.4346L14.4092 12.621V21.9755C14.4092 21.9755 14.4092 22.0008 14.4346 22.0008Z" fill="#F4F4F4"/>
<path d="M1.76771 20.9619C2.68338 21.6581 3.66263 21.9998 4.73092 21.9998H7.66869C8.74969 21.9998 9.74166 21.6454 10.6828 20.9365C11.0516 20.6201 11.3187 20.3416 11.484 20.1138C12.1199 19.253 12.4378 18.3036 12.4378 17.3036C12.4378 16.0631 11.98 14.9619 11.0643 14.0125C10.6701 13.6327 10.2885 13.3543 9.91971 13.1644C9.23296 12.7846 8.3936 12.6074 7.42706 12.6074H5.08701C4.0696 12.6074 3.21752 12.7973 2.54348 13.1644C2.25098 13.3036 1.89488 13.5568 1.48792 13.9239C1.06824 14.3416 0.813884 14.6581 0.712143 14.8732C0.254308 15.6201 0.0253906 16.4175 0.0253906 17.253V17.3543C0.0253906 18.4175 0.394202 19.4049 1.13183 20.3036C1.3989 20.6074 1.6151 20.8226 1.79314 20.9492L1.76771 20.9619ZM2.39087 17.3036C2.39087 16.5188 2.74696 15.8732 3.47187 15.3543C3.90427 15.0884 4.32395 14.9619 4.75635 14.9619H7.65597C8.3936 14.9619 9.02948 15.2783 9.56362 15.8986C9.88156 16.3289 10.0469 16.772 10.0469 17.215V17.3669C10.0469 18.0251 9.74167 18.6201 9.14394 19.1391C8.67338 19.4808 8.1774 19.6581 7.66869 19.6581H4.75635C4.08232 19.6581 3.48459 19.3796 2.96316 18.8353C2.58164 18.3669 2.39087 17.8732 2.39087 17.3163V17.291V17.3036Z" fill="#F4F4F4"/>
</g>
<defs>
<clipPath id="clip0_605_81852">
<rect width="16.8" height="22" fill="white"/>
</clipPath>
</defs>
</svg>
