<svg width="17" height="22" viewBox="0 0 17 22" fill="none" xmlns="http://www.w3.org/2000/svg">
<g clip-path="url(#clip0_594_79847)">
<path d="M2.36548 0H0.0254353C0.0254353 0 0 0 0 0.0253165V9.36709C0 9.36709 0 9.39241 0.0254353 9.39241H2.36548L2.39092 9.36709V0.0253165C2.39092 0.0253165 2.39092 0 2.36548 0Z" fill="#F4F4F4"/>
<path d="M15.0322 1.03797C14.1165 0.341772 13.1373 0 12.069 0H9.13124C8.05024 0 7.05826 0.35443 6.11716 1.06329C5.74834 1.37975 5.48127 1.65823 5.31594 1.88608C4.68006 2.74684 4.36212 3.6962 4.36212 4.6962C4.36212 5.93671 4.81996 7.03798 5.73563 7.98734C6.12987 8.36709 6.5114 8.64557 6.88021 8.83544C7.56697 9.21519 8.40633 9.39241 9.37287 9.39241H11.7129C12.7303 9.39241 13.5824 9.20253 14.2564 8.83544C14.5489 8.6962 14.905 8.44304 15.312 8.07595C15.7317 7.65823 15.986 7.34177 16.0878 7.12658C16.5456 6.37975 16.7745 5.58228 16.7745 4.74684V4.64557C16.7745 3.58228 16.4057 2.59494 15.6681 1.6962C15.401 1.39241 15.1848 1.17722 15.0068 1.05063L15.0322 1.03797ZM14.4091 4.6962C14.4091 5.48101 14.053 6.12658 13.3281 6.64557C12.8957 6.91139 12.476 7.03798 12.0436 7.03798H9.14395C8.40633 7.03798 7.77045 6.72152 7.23631 6.10127C6.91837 5.67089 6.75304 5.22785 6.75304 4.78481V4.63291C6.75304 3.97468 7.05826 3.37975 7.65599 2.86076C8.12654 2.51899 8.62253 2.34177 9.13124 2.34177H12.0309C12.7049 2.34177 13.3026 2.62025 13.824 3.16456C14.2056 3.63291 14.3963 4.12658 14.3963 4.68354V4.70886L14.4091 4.6962Z" fill="#F4F4F4"/>
<path d="M14.4345 22.0008H16.7745C16.7745 22.0008 16.8 22.0008 16.8 21.9755V12.621C16.8 12.621 16.8 12.5957 16.7745 12.5957H14.4345L14.4091 12.621V21.9755C14.4091 21.9755 14.4091 22.0008 14.4345 22.0008Z" fill="#F4F4F4"/>
<path d="M1.76777 20.9619C2.68344 21.6581 3.6627 21.9998 4.73098 21.9998H7.66875C8.74975 21.9998 9.74173 21.6454 10.6828 20.9365C11.0516 20.6201 11.3187 20.3416 11.484 20.1138C12.1199 19.253 12.4379 18.3036 12.4379 17.3036C12.4379 16.0631 11.98 14.9619 11.0644 14.0125C10.6701 13.6327 10.2886 13.3543 9.91977 13.1644C9.23302 12.7846 8.39366 12.6074 7.42712 12.6074H5.08707C4.06966 12.6074 3.21758 12.7973 2.54354 13.1644C2.25104 13.3036 1.89494 13.5568 1.48798 13.9239C1.0683 14.3416 0.813945 14.6581 0.712204 14.8732C0.254369 15.6201 0.0254517 16.4175 0.0254517 17.253V17.3543C0.0254517 18.4175 0.394263 19.4049 1.13189 20.3036C1.39896 20.6074 1.61516 20.8226 1.7932 20.9492L1.76777 20.9619ZM2.39093 17.3036C2.39093 16.5188 2.74703 15.8732 3.47193 15.3543C3.90433 15.0884 4.32401 14.9619 4.75641 14.9619H7.65603C8.39366 14.9619 9.02954 15.2783 9.56368 15.8986C9.88162 16.3289 10.0469 16.772 10.0469 17.215V17.3669C10.0469 18.0251 9.74173 18.6201 9.144 19.1391C8.67344 19.4808 8.17746 19.6581 7.66875 19.6581H4.75641C4.08238 19.6581 3.48465 19.3796 2.96323 18.8353C2.5817 18.3669 2.39093 17.8732 2.39093 17.3163V17.291V17.3036Z" fill="#F4F4F4"/>
</g>
<defs>
<clipPath id="clip0_594_79847">
<rect width="16.8" height="22" fill="white"/>
</clipPath>
</defs>
</svg>
