<svg width="178" height="120" viewBox="0 0 178 120" fill="none" xmlns="http://www.w3.org/2000/svg">
<g clip-path="url(#clip0_595_80042)">
<path d="M15.9615 0.000768444H16.3901C19.9506 0.000768444 23.2802 1.21388 26.3626 3.65651C26.6429 3.90241 27.1868 4.427 27.9451 5.23028C28.9505 4.1811 29.6758 3.50897 30.1044 3.21388C33.0385 1.06634 36.1868 -0.015625 39.5659 -0.015625H39.9286C43.489 -0.015625 46.7692 1.1811 49.7527 3.57454C50.7088 4.39421 51.4341 5.11552 51.9121 5.73847C54.2198 8.70569 55.3736 11.9024 55.3736 15.3614V54.509C55.3736 54.509 55.3407 54.5745 55.3077 54.5745H47.6593C47.6593 54.5745 47.5934 54.5418 47.5934 54.509V15.5909C47.5934 12.9024 46.4066 10.7385 44.0495 9.04995C42.6978 8.1811 41.2637 7.75487 39.7143 7.75487C37.2582 7.75487 35.1813 8.78766 33.5 10.8368C32.3956 12.2795 31.8352 13.7877 31.8352 15.3614V54.5745H24.1044C24.1044 54.5745 24.0385 54.5418 24.0385 54.509V15.3778C24.0385 13.2139 23.0989 11.3122 21.2198 9.62372C19.7363 8.37782 18.0714 7.75487 16.2418 7.75487C13.5385 7.75487 11.3297 8.9352 9.5989 11.2795C8.77473 12.6237 8.36264 14.0663 8.36264 15.5909V54.509C8.36264 54.509 8.32967 54.5745 8.2967 54.5745H0.582418C0.582418 54.5745 0.5 54.5418 0.5 54.509V16.4434C0.5 13.1811 1.10989 10.4762 2.31319 8.32864C2.74176 7.41061 3.56593 6.26306 4.76923 4.86962C6.25275 3.44339 7.39011 2.55815 8.16484 2.21388C10.6703 0.738474 13.2747 -0.015625 15.9615 -0.015625V0.000768444Z" fill="#F4F4F4"/>
<path d="M78.6818 0H79.1103C82.951 0 86.4785 1.40984 89.6598 4.22951C91.1103 5.72131 92.0169 6.83607 92.4125 7.60656C93.8466 10.0984 94.5719 12.7049 94.5719 15.4426V39.1475C94.5719 43.2131 93.0554 46.8361 90.0224 49.9836C88.6708 51.2787 87.4675 52.1803 86.4125 52.7213C84.0059 53.9672 81.5664 54.5902 79.1268 54.5902H78.6983C74.7422 54.5902 71.1818 53.1312 68.0169 50.2131C64.7862 47.0492 63.1708 43.2131 63.1708 38.7213C63.1708 34.8853 64.1598 31.7541 66.1378 29.3115C67.2422 28.2131 68.0664 27.5082 68.5939 27.2295C69.8466 26.3607 71.6268 25.5246 73.9345 24.7213C75.6653 24.1967 77.8081 23.5738 80.3631 22.8525C82.0939 22.2787 83.5114 21.541 84.6323 20.623C86.0829 19.4754 86.7917 17.7049 86.7917 15.3115C86.7917 13.6393 86.1158 12.0164 84.7642 10.4262C83.0829 8.65574 81.1543 7.77049 78.9785 7.77049H78.8301C76.3246 7.77049 74.2312 8.85246 72.5499 11C71.5444 12.3934 71.0334 13.9016 71.0334 15.5246C71.0334 15.5738 71.0005 15.6066 70.9675 15.6066H63.2367C63.2367 15.6066 63.1543 15.5738 63.1543 15.5246V15.459C63.1543 11.4426 64.6543 7.85246 67.6378 4.68852C69.1213 3.29508 70.3576 2.39344 71.3136 1.96721C73.6213 0.672131 76.0774 0.0327869 78.6818 0.0327869V0ZM71.0334 39.2787C71.0334 40.9508 71.6763 42.5902 72.9785 44.1639C74.6598 45.9344 76.6213 46.8197 78.8301 46.8197H78.9785C81.4345 46.8197 83.5279 45.7377 85.2587 43.5902C86.2642 42.1967 86.7752 40.6885 86.7752 39.0656V28.7213C85.6708 29.2459 84.1543 29.8033 82.2257 30.3771C78.8136 31.2787 76.4235 32.0492 75.0719 32.6721C74.1488 33.0984 73.3081 33.7049 72.5499 34.459C71.5444 35.6066 71.0334 37.2131 71.0334 39.2623V39.2787Z" fill="#F4F4F4"/>
<path d="M117.417 0H117.565C117.565 0 117.631 0.0327869 117.631 0.0655738V7.68853C117.631 7.68853 117.598 7.7541 117.565 7.7541C115.109 7.7541 113.048 8.83607 111.351 10.9836C110.345 12.377 109.834 13.8852 109.834 15.5082V54.5082C109.834 54.5082 109.801 54.5738 109.768 54.5738H102.037C102.037 54.5738 101.955 54.541 101.955 54.5082V16.2951C101.955 12.3607 102.961 9.06557 104.988 6.39344C105.944 5 107.23 3.7541 108.812 2.65574C111.565 0.885246 114.417 0 117.4 0L117.417 0Z" fill="#F4F4F4"/>
<path d="M127.159 0H135.318C135.318 0 135.4 0.0327869 135.4 0.0655738V7.68853C135.4 7.68853 135.367 7.7541 135.318 7.7541H127.159C127.159 7.7541 127.076 7.72131 127.076 7.68853V0.0655738C127.076 0.0655738 127.109 0 127.159 0ZM127.159 15.4426H135.318L135.4 15.5082V54.5082C135.4 54.5082 135.367 54.5738 135.318 54.5738H127.159C127.159 54.5738 127.076 54.541 127.076 54.5082V15.5082C127.076 15.5082 127.109 15.4426 127.159 15.4426Z" fill="#F4F4F4"/>
<path d="M16.0275 65.4258H16.3901C20.2473 65.4258 23.7582 66.8356 26.9396 69.6553C28.3901 71.1471 29.2967 72.2618 29.6923 73.0323C31.1429 75.5241 31.8516 78.1307 31.8516 80.8684V93.3602C31.8516 96.7537 30.9615 99.6553 29.1813 102.049C28.3077 103 27.5824 103.704 27.022 104.131C25.4725 105.229 23.6099 106.163 21.3846 106.934L14.4451 108.95C13.1923 109.377 12.1374 109.885 11.2637 110.459C9.96154 111.278 9.08791 112.426 8.65934 113.901C8.46154 114.475 8.37912 115.442 8.37912 116.77V119.934C8.37912 119.934 8.34615 120 8.31319 120H0.582418C0.582418 120 0.5 119.967 0.5 119.934V81.7209C0.5 77.5077 1.68681 73.9832 4.04396 71.1635C4.91758 70.1143 5.72527 69.2946 6.5 68.7209C9.43407 66.5241 12.6154 65.4258 16.0275 65.4258ZM8.37912 80.934V102.918C9.78022 102.295 12.3681 101.442 16.1758 100.327C17.1813 100.082 18.2033 99.7537 19.2088 99.3274C21.3681 98.4258 22.7857 97.1963 23.4615 95.6717C23.8571 94.852 24.0385 93.6553 24.0385 92.0815V80.9504C24.0385 78.5078 22.9506 76.4258 20.7912 74.7045C19.3901 73.7045 17.8736 73.1963 16.2418 73.1963H16.0934C13.6374 73.1963 11.5769 74.2782 9.87912 76.4258C8.87363 77.8192 8.36264 79.3274 8.36264 80.9504L8.37912 80.934Z" fill="#F4F4F4"/>
<path d="M79.0268 119.999H78.5983C74.7576 119.999 71.2301 118.589 68.0488 115.753C66.6147 114.278 65.6917 113.147 65.3125 112.376C63.862 109.884 63.1367 107.278 63.1367 104.557V80.8516C63.1367 76.786 64.6532 73.1631 67.6862 69.9991C69.0378 68.7041 70.2411 67.8024 71.2961 67.2614C73.7027 66.0155 76.1422 65.3926 78.5818 65.3926H79.0103C82.9664 65.3926 86.5268 66.8516 89.6917 69.7696C92.9224 72.9336 94.5378 76.7696 94.5378 81.2614C94.5378 85.0975 93.5488 88.2286 91.5708 90.6713C90.4664 91.7696 89.6422 92.4582 89.1147 92.7532C87.862 93.6221 86.0818 94.4582 83.7741 95.2614C82.0433 95.786 79.9005 96.409 77.3455 97.1303C75.6147 97.7041 74.1972 98.4418 73.0763 99.3598C71.6257 100.507 70.9169 102.278 70.9169 104.671C70.9169 106.343 71.5928 107.983 72.9444 109.557C74.6257 111.327 76.5543 112.212 78.7301 112.212H78.8785C81.384 112.212 83.4774 111.13 85.1587 108.983C86.1642 107.589 86.6752 106.081 86.6752 104.458C86.6752 104.409 86.7081 104.393 86.7411 104.393H94.4719C94.4719 104.393 94.5543 104.425 94.5543 104.458V104.54C94.5543 108.557 93.0543 112.147 90.0708 115.311C88.5708 116.704 87.351 117.606 86.395 118.048C84.0873 119.343 81.6312 119.983 79.0268 119.983V119.999ZM86.6752 80.7205C86.6752 79.0483 86.0323 77.4254 84.7301 75.8352C83.0488 74.0647 81.0873 73.1795 78.8785 73.1795H78.7301C76.2741 73.1795 74.1807 74.2614 72.4499 76.409C71.4444 77.8024 70.9334 79.3106 70.9334 80.9336V91.2778C72.0378 90.7532 73.5543 90.1959 75.4829 89.6221C78.895 88.7041 81.2851 87.95 82.6367 87.327C83.5598 86.9008 84.4005 86.2942 85.1587 85.5401C86.1642 84.3926 86.6752 82.786 86.6752 80.7205Z" fill="#F4F4F4"/>
<path d="M118.457 65.4258H118.918C123.188 65.4258 127.012 66.9012 130.391 69.8684C131.891 71.311 132.863 72.5078 133.325 73.4586C134.71 75.8028 135.402 78.2782 135.402 80.852V93.3438C135.402 96.5077 134.561 99.2618 132.863 101.606C132.55 102.082 131.808 102.836 130.622 103.836C130.111 104.229 129.83 104.409 129.781 104.409C131.38 105.852 132.319 106.852 132.633 107.426C133.144 108.147 133.605 108.967 134.017 109.868C134.94 111.934 135.402 113.836 135.402 115.623V119.934C135.402 119.934 135.369 120 135.319 120H127.144C127.144 120 127.061 119.967 127.061 119.934V116.918C127.061 113.524 125.858 111.098 123.435 109.672C122.314 109 121.177 108.573 120.039 108.377C119.99 108.327 119.792 108.278 119.429 108.229C116.495 109 114.468 109.77 113.347 110.524C112.012 111.344 111.105 112.459 110.644 113.901C110.446 114.524 110.33 115.409 110.33 116.557V119.934C110.33 119.934 110.297 120 110.248 120H102.006C102.006 120 101.924 119.967 101.924 119.934V79.7864C101.924 79.7864 102.056 79.4258 102.155 78.852C102.303 77.1307 103.012 75.1963 104.232 73.0323C106.127 70.0651 108.929 67.8848 112.622 66.5077C114.567 65.7864 116.495 65.4258 118.391 65.4258H118.457ZM110.363 80.934V102.918C112.259 102.147 114.88 101.327 118.226 100.442C121.572 99.5569 123.847 98.5569 125.083 97.4586C126.056 96.4586 126.633 95.5897 126.781 94.8684C126.979 94.2946 127.094 93.4094 127.094 92.2127V80.934C127.094 78.4914 125.94 76.4094 123.633 74.6881C122.149 73.6881 120.534 73.1799 118.786 73.1799H118.638C116.017 73.1799 113.808 74.2291 112.012 76.3438C110.924 77.8192 110.396 79.3602 110.396 80.934H110.363Z" fill="#F4F4F4"/>
<path d="M161.642 0H162.005C165.566 0 168.846 1.19672 171.829 3.59016C172.835 4.45902 173.56 5.18033 173.989 5.7541C176.296 8.72131 177.45 11.918 177.45 15.3771V24.918C177.45 28.4098 176.263 31.6721 173.906 34.6885C172.851 35.8852 171.928 36.7541 171.153 37.2787C168.269 39.3443 165.137 40.3607 161.758 40.3607C157.62 40.3607 153.961 38.8853 150.78 35.918C149.527 34.623 148.588 33.3771 147.961 32.1803C146.708 29.9344 146.082 27.2295 146.082 24.0656V16.459C146.082 13.1475 146.708 10.4098 147.961 8.19672C148.439 7.2459 149.28 6.08197 150.483 4.7541C151.884 3.40984 152.939 2.57377 153.664 2.2459C156.17 0.770492 158.807 0.0163934 161.61 0.0163934L161.642 0ZM146.181 46.8197H177.368C177.368 46.8197 177.434 46.8525 177.434 46.8853V54.4918C177.434 54.4918 177.401 54.5574 177.368 54.5574H146.181C146.181 54.5574 146.099 54.5246 146.099 54.4918V46.8853L146.181 46.8197ZM153.978 15.4426V24.8525C153.978 27.2459 155.016 29.3115 157.093 31.0328C158.527 32.082 160.011 32.6066 161.494 32.6066H162.005C164.214 32.6066 166.192 31.623 167.923 29.6557C169.077 28.1312 169.653 26.5246 169.653 24.8525V15.4426C169.653 13.2459 168.73 11.2951 166.901 9.62295C165.351 8.37705 163.67 7.7541 161.84 7.7541H161.758C159.153 7.7541 156.994 8.93443 155.263 11.2787C154.39 12.6721 153.961 14.0656 153.961 15.4426H153.978Z" fill="#F4F4F4"/>
<path d="M161.972 120.001H161.609C158.049 120.001 154.768 118.804 151.785 116.411C150.779 115.542 150.054 114.82 149.626 114.247C147.318 111.279 146.164 108.083 146.164 104.624V95.0827C146.164 91.5909 147.351 88.3286 149.708 85.3122C150.763 84.1155 151.686 83.2466 152.461 82.7221C155.345 80.6565 158.477 79.6401 161.856 79.6401C165.994 79.6401 169.653 81.1155 172.834 84.0827C174.087 85.3778 175.027 86.6237 175.653 87.8204C176.906 90.0663 177.532 92.7712 177.532 95.9352V103.542C177.532 106.853 176.906 109.591 175.653 111.804C175.175 112.755 174.334 113.919 173.131 115.247C171.73 116.591 170.675 117.427 169.95 117.755C167.444 119.23 164.807 119.984 162.005 119.984L161.972 120.001ZM177.433 73.1811H146.246C146.246 73.1811 146.181 73.1483 146.181 73.1155V65.5089C146.181 65.5089 146.214 65.4434 146.246 65.4434H177.433C177.433 65.4434 177.516 65.4761 177.516 65.5089V73.1155L177.433 73.1811ZM169.637 104.558V95.1483C169.637 92.7548 168.598 90.6893 166.521 88.968C165.087 87.9188 163.604 87.3942 162.12 87.3942H161.609C159.4 87.3942 157.422 88.3778 155.692 90.345C154.538 91.8696 153.961 93.4762 153.961 95.1483V104.558C153.961 106.755 154.884 108.706 156.714 110.378C158.263 111.624 159.944 112.247 161.774 112.247H161.856C164.461 112.247 166.62 111.066 168.351 108.722C169.225 107.329 169.653 105.935 169.653 104.558H169.637Z" fill="#F4F4F4"/>
<path d="M55.3897 65.4925V104.788C55.3897 107.312 54.5821 109.902 52.9832 112.542C50.9557 115.656 47.9227 117.886 43.8843 119.23C42.0546 119.755 40.3568 120.017 38.7414 120.017H38.5766C38.5766 120.017 38.4941 119.984 38.4941 119.952V112.345C38.4941 112.345 38.5271 112.263 38.5766 112.263C41.0161 112.263 43.1425 111.329 44.9722 109.46C46.3238 107.984 46.9996 106.312 46.9996 104.427V73.1975H38.593C38.593 73.1975 38.5106 73.1647 38.5106 73.1319V65.5089C38.5106 65.5089 38.5436 65.4434 38.593 65.4434H55.3733C55.3733 65.4434 55.4227 65.4761 55.4227 65.5089L55.3897 65.4925Z" fill="#F4F4F4"/>
<path d="M38.4785 73.0977C38.4785 73.0977 38.495 73.1468 38.5115 73.1468C38.495 73.1468 38.4785 73.114 38.4785 73.0977Z" fill="#F4F4F4"/>
<path d="M38.5271 65.4258C38.5271 65.4258 38.4941 65.4422 38.4941 65.475C38.4941 65.4422 38.4941 65.4258 38.5271 65.4258Z" fill="#F4F4F4"/>
</g>
<defs>
<clipPath id="clip0_595_80042">
<rect width="177" height="120" fill="white" transform="translate(0.5)"/>
</clipPath>
</defs>
</svg>
