<svg width="20" height="25" viewBox="0 0 20 25" fill="none" xmlns="http://www.w3.org/2000/svg">
<g clip-path="url(#clip0_595_79909)">
<path d="M2.68805 0H0.0289037C0.0289037 0 0 0 0 0.0287687V10.6444C0 10.6444 0 10.6732 0.0289037 10.6732H2.68805L2.71695 10.6444V0.0287687C2.71695 0.0287687 2.71695 0 2.68805 0Z" fill="#F4F4F4"/>
<path d="M17.0821 1.17952C16.0416 0.388377 14.9288 0 13.7149 0H10.3765C9.14807 0 8.02083 0.402762 6.95139 1.20829C6.53228 1.56789 6.22879 1.88435 6.04092 2.14327C5.31833 3.1214 4.95703 4.20023 4.95703 5.33659C4.95703 6.74626 5.4773 7.9977 6.51783 9.07653C6.96584 9.50806 7.3994 9.82451 7.8185 10.0403C8.5989 10.4718 9.55272 10.6732 10.6511 10.6732H13.3102C14.4664 10.6732 15.4346 10.4574 16.2006 10.0403C16.533 9.88205 16.9376 9.59436 17.4001 9.17722C17.877 8.70253 18.166 8.34292 18.2816 8.09839C18.8019 7.24971 19.062 6.3435 19.062 5.39413V5.27906C19.062 4.07077 18.6429 2.94879 17.8047 1.9275C17.5012 1.58228 17.2556 1.33774 17.0532 1.1939L17.0821 1.17952ZM16.374 5.33659C16.374 6.22842 15.9693 6.96203 15.1456 7.55178C14.6542 7.85386 14.1773 7.9977 13.686 7.9977H10.3909C9.55272 7.9977 8.83013 7.63809 8.22315 6.93326C7.86186 6.44419 7.67398 5.94074 7.67398 5.43728V5.26467C7.67398 4.51669 8.02083 3.84062 8.70006 3.25086C9.23478 2.86249 9.7984 2.6611 10.3765 2.6611H13.6715C14.4375 2.6611 15.1167 2.97756 15.7092 3.59609C16.1428 4.12831 16.3595 4.6893 16.3595 5.32221V5.35098L16.374 5.33659Z" fill="#F4F4F4"/>
<path d="M16.4029 25.0001H19.0621C19.0621 25.0001 19.091 25.0001 19.091 24.9713V14.3413C19.091 14.3413 19.091 14.3125 19.0621 14.3125H16.4029L16.374 14.3413V24.9713C16.374 24.9713 16.374 25.0001 16.4029 25.0001Z" fill="#F4F4F4"/>
<path d="M2.0092 23.8198C3.04974 24.611 4.16253 24.9994 5.37649 24.9994H8.71487C9.94327 24.9994 11.0705 24.5966 12.14 23.7911C12.5591 23.4315 12.8625 23.115 13.0504 22.8561C13.773 21.878 14.1343 20.7991 14.1343 19.6628C14.1343 18.2531 13.614 17.0017 12.5735 15.9228C12.1255 15.4913 11.6919 15.1748 11.2728 14.9591C10.4924 14.5276 9.53862 14.3262 8.44028 14.3262H5.78114C4.62499 14.3262 3.65671 14.5419 2.89077 14.9591C2.55837 15.1173 2.15372 15.405 1.69126 15.8221C1.21435 16.2968 0.925312 16.6564 0.809697 16.901C0.28943 17.7496 0.0292969 18.6559 0.0292969 19.6052V19.7203C0.0292969 20.9286 0.448401 22.0506 1.28661 23.0719C1.5901 23.4171 1.83578 23.6616 2.03811 23.8055L2.0092 23.8198ZM2.71734 19.6628C2.71734 18.7709 3.122 18.0373 3.94575 17.4476C4.43711 17.1455 4.91403 17.0017 5.40539 17.0017H8.70041C9.53862 17.0017 10.2612 17.3613 10.8682 18.0661C11.2295 18.5552 11.4174 19.0586 11.4174 19.5621V19.7347C11.4174 20.4827 11.0705 21.1587 10.3913 21.7485C9.85656 22.1369 9.29294 22.3383 8.71487 22.3383H5.40539C4.63944 22.3383 3.9602 22.0218 3.36768 21.4033C2.93412 20.8711 2.71734 20.3101 2.71734 19.6772V19.6484V19.6628Z" fill="#F4F4F4"/>
</g>
<defs>
<clipPath id="clip0_595_79909">
<rect width="19.0909" height="25" fill="white"/>
</clipPath>
</defs>
</svg>
