<svg width="350" height="29" viewBox="0 0 350 29" fill="none" xmlns="http://www.w3.org/2000/svg">
<g clip-path="url(#clip0_482_69480)">
<path d="M42.6055 29.0007C45.227 29.0007 47.3545 26.8353 47.3545 24.1673V19.334H42.6055C39.984 19.334 37.8564 21.4993 37.8564 24.1673C37.8564 26.8353 39.984 29.0007 42.6055 29.0007Z" fill="#181717"/>
<path d="M37.8564 14.4993C37.8564 11.8313 39.984 9.66602 42.6055 9.66602H47.3545V19.3327H42.6055C39.984 19.3327 37.8564 17.1673 37.8564 14.4993Z" fill="#181717"/>
<path d="M37.8564 4.83333C37.8564 2.16533 39.984 0 42.6055 0H47.3545V9.66667H42.6055C39.984 9.66667 37.8564 7.50133 37.8564 4.83333Z" fill="#181717"/>
<path d="M47.3545 0H52.1035C54.725 0 56.8526 2.16533 56.8526 4.83333C56.8526 7.50133 54.725 9.66667 52.1035 9.66667H47.3545V0Z" fill="#181717"/>
<path d="M56.8526 14.4993C56.8526 17.1673 54.725 19.3327 52.1035 19.3327C49.4821 19.3327 47.3545 17.1673 47.3545 14.4993C47.3545 11.8313 49.4821 9.66602 52.1035 9.66602C54.725 9.66602 56.8526 11.8313 56.8526 14.4993Z" fill="#181717"/>
</g>
<path d="M97.7327 0C99.1359 0 100.417 0.121676 101.575 0.362489C102.734 0.603303 103.723 0.998744 104.548 1.54881C105.373 2.09888 106.014 2.82893 106.469 3.74149C106.925 4.65404 107.151 5.77953 107.151 7.12048C107.151 8.5679 106.813 9.77451 106.139 10.7403C105.465 11.7061 104.465 12.497 103.145 13.1129C104.962 13.6225 106.318 14.5147 107.214 15.7872C108.109 17.0598 108.557 18.5959 108.557 20.3931C108.557 21.8405 108.268 23.0953 107.69 24.1549C107.112 25.2145 106.334 26.0789 105.355 26.7481C104.376 27.4198 103.262 27.9141 102.01 28.236C100.75 28.558 99.4509 28.7202 98.1492 28.7177H83.8545V0H97.7327ZM96.9074 11.6224C98.0633 11.6224 99.0135 11.3537 99.7581 10.8189C100.503 10.2815 100.875 9.41202 100.872 8.20541C100.872 7.5362 100.747 6.98613 100.5 6.55774C100.253 6.12934 99.9221 5.7922 99.5081 5.55139C99.0942 5.31058 98.6204 5.14328 98.0841 5.04948C97.5322 4.95569 96.9725 4.90753 96.4102 4.91007H90.3419V11.6275L96.9074 11.6224V11.6224ZM97.2797 23.8076C97.8915 23.8101 98.5007 23.7493 99.0968 23.6276C99.6748 23.506 100.185 23.3057 100.625 23.0243C101.065 22.743 101.416 22.3602 101.679 21.8786C101.94 21.3969 102.072 20.7784 102.072 20.0281C102.072 18.5553 101.645 17.5008 100.792 16.8722C99.9377 16.241 98.8079 15.9267 97.4047 15.9267H90.3419V23.8101L97.2797 23.8076V23.8076ZM116.716 23.2043C117.596 24.0357 118.864 24.4515 120.517 24.4515C121.701 24.4515 122.719 24.1625 123.573 23.5871C124.427 23.0117 124.95 22.4007 125.143 21.7569H130.305C129.48 24.2512 128.212 26.0332 126.504 27.1055C124.797 28.1777 122.732 28.7151 120.309 28.7151C118.629 28.7151 117.114 28.454 115.766 27.9319C114.417 27.4097 113.274 26.6644 112.337 25.6986C111.4 24.7328 110.676 23.582 110.169 22.2411C109.661 20.9001 109.406 19.4248 109.406 17.8177C109.406 16.2638 109.666 14.8164 110.189 13.4754C110.713 12.1345 111.457 10.976 112.421 9.99757C113.384 9.01911 114.534 8.24851 115.87 7.68576C117.205 7.12302 118.687 6.84165 120.311 6.84165C122.128 6.84165 123.711 7.18386 125.062 7.86827C126.411 8.55269 127.52 9.47032 128.387 10.6237C129.253 11.7771 129.881 13.0901 130.266 14.5654C130.651 16.0407 130.789 17.5819 130.68 19.1916H115.274C115.354 21.0344 115.836 22.3754 116.716 23.2043ZM123.347 12.2663C122.644 11.516 121.576 11.1408 120.145 11.1408C119.207 11.1408 118.429 11.2954 117.812 11.6022C117.192 11.9114 116.698 12.2916 116.325 12.7479C115.953 13.2042 115.693 13.6858 115.542 14.1953C115.391 14.7048 115.3 15.1611 115.274 15.5616H124.815C124.536 14.1168 124.047 13.0166 123.347 12.2663V12.2663ZM114.269 1.45756H126.189V4.67686H114.269V1.45756V1.45756Z" fill="#181717"/>
<path d="M157.717 0.472281C157.717 0.257211 157.803 0.129332 158.019 0.129332C159.66 0.0871902 162.853 0 166.004 0C174.378 0 177.484 4.63562 177.484 9.35843C177.484 16.184 172.176 19.1455 165.658 19.1455H162.939V27.946C162.939 28.161 162.853 28.2889 162.594 28.2889H158.062C157.845 28.2889 157.717 28.2032 157.717 27.9881V0.472281ZM162.939 14.5521C163.672 14.5957 164.233 14.5957 165.658 14.5957C169.283 14.5957 172.348 13.3939 172.348 9.48776C172.348 6.35472 170.104 4.50774 166.133 4.50774C164.622 4.50774 163.414 4.55134 162.939 4.59348V14.5521Z" fill="#181717"/>
<path d="M189.05 10.8621C186.762 10.8621 185.986 11.8066 185.986 12.7076C185.986 13.6086 186.633 14.2959 189.396 15.3683C194.317 17.1717 196 19.103 196 22.1503C196 26.1858 192.806 28.7186 187.498 28.7186C184.951 28.7186 182.707 28.2463 181.413 27.5169C181.196 27.3875 181.11 27.3018 181.11 27.0446V22.967C181.11 22.7519 181.283 22.6662 181.455 22.7519C183.311 23.9537 185.685 24.4696 187.627 24.4696C189.871 24.4696 190.951 23.6965 190.951 22.5804C190.951 21.4644 190.131 20.8206 187.454 19.7467C182.75 18.0291 181.066 16.0978 181.066 13.0069C181.066 9.74457 183.742 6.69727 189.138 6.69727C191.64 6.69727 193.54 7.04021 194.576 7.55609C194.792 7.68542 194.834 7.8569 194.834 8.07197V11.8488C194.834 12.0638 194.704 12.1917 194.446 12.106C193.107 11.3765 190.949 10.8606 189.051 10.8606L189.05 10.8621Z" fill="#181717"/>
<path d="M230.168 21.601L227.892 28.3897C227.809 28.6363 227.685 28.7184 227.437 28.7184H223.3C223.052 28.7184 222.969 28.5945 223.01 28.3076L231.532 4.19741C231.697 3.78652 231.821 3.37423 231.904 1.97582C231.904 1.81146 231.987 1.6875 232.152 1.6875H237.902C238.109 1.6875 238.15 1.72789 238.192 1.93403L247.749 28.3479C247.789 28.5945 247.749 28.7184 247.501 28.7184H242.868C242.661 28.7184 242.538 28.6363 242.455 28.4719L240.056 21.601H230.169H230.168ZM238.731 17.116C237.863 14.4 235.918 8.68097 235.091 5.80196H235.049C234.387 8.5584 232.733 13.3721 231.492 17.116H238.731Z" fill="#181717"/>
<path d="M250.478 2.83862C250.478 1.15188 251.678 0 253.332 0C255.11 0 256.145 1.19367 256.145 2.83862C256.145 4.48357 255.028 5.67724 253.291 5.67724C251.554 5.67724 250.478 4.52535 250.478 2.83862ZM250.767 8.72199C250.767 8.51585 250.892 8.43368 251.098 8.43368H255.483C255.731 8.43368 255.813 8.47546 255.813 8.72199V28.389C255.813 28.6355 255.731 28.7177 255.441 28.7177H251.179C250.889 28.7177 250.766 28.5937 250.766 28.3472V8.72199H250.767Z" fill="#181717"/>
<g clip-path="url(#clip1_482_69480)">
<path d="M312.105 16.0044C311.941 14.4653 311.285 13.0171 310.234 11.8688C310.563 10.8925 310.677 9.85809 310.569 8.83484C310.46 7.81159 310.132 6.82279 309.604 5.93514C308.823 4.59241 307.63 3.52903 306.196 2.89902C304.763 2.26902 303.163 2.10467 301.629 2.42957C300.937 1.6599 300.086 1.04508 299.134 0.626069C298.181 0.207061 297.149 -0.00610463 296.106 0.000133042C294.538 -0.0036638 293.008 0.48423 291.738 1.39357C290.469 2.30292 289.525 3.58652 289.042 5.05915C288.02 5.26554 287.055 5.68482 286.21 6.28933C285.366 6.89384 284.662 7.66921 284.146 8.56364C283.358 9.90311 283.022 11.4541 283.186 12.9943C283.35 14.5339 284.005 15.9827 285.057 17.1315C284.728 18.1078 284.613 19.1422 284.722 20.1654C284.83 21.1887 285.159 22.1772 285.686 23.0651C286.467 24.4079 287.661 25.471 289.095 26.1012C290.528 26.7312 292.127 26.8956 293.662 26.571C294.354 27.3406 295.204 27.9555 296.157 28.3745C297.109 28.7932 298.141 29.0066 299.184 29.0001C300.754 29.0042 302.284 28.516 303.554 27.6062C304.824 26.6965 305.768 25.4118 306.251 23.9384C307.272 23.7317 308.238 23.3127 309.082 22.7082C309.927 22.1037 310.63 21.3283 311.147 20.4339C311.933 19.095 312.269 17.544 312.105 16.0049L312.105 16.0044ZM303.404 4.17232C304.45 4.2168 305.46 4.55363 306.319 5.14404C307.177 5.73445 307.847 6.55375 308.25 7.50595C308.654 8.45841 308.774 9.50444 308.597 10.5217C308.554 10.4954 308.478 10.4504 308.424 10.4195L302.572 7.08423C302.426 7.00015 302.26 6.95595 302.091 6.95595C301.922 6.95595 301.756 7.00015 301.61 7.08423L294.466 11.1547V8.33637C294.465 8.32172 294.468 8.30762 294.474 8.2946C294.48 8.28159 294.489 8.2702 294.501 8.26152L300.417 4.89426C301.323 4.3787 302.36 4.12838 303.405 4.17259L303.404 4.17232ZM297.646 10.8737L300.828 12.6859V16.3116L297.646 18.1241L294.464 16.3116V12.687L297.646 10.8737ZM290.598 7.32777C290.599 6.2953 290.898 5.28425 291.46 4.41315C292.022 3.54204 292.823 2.84695 293.771 2.40896C294.719 1.97124 295.773 1.80879 296.811 1.94059C297.849 2.07267 298.828 2.49357 299.632 3.15422C299.587 3.17836 299.51 3.2204 299.458 3.25131L293.606 6.58657C293.459 6.66901 293.338 6.78834 293.253 6.93262C293.168 7.0769 293.124 7.24071 293.125 7.4075L293.121 15.5452L290.647 14.1358C290.634 14.1295 290.622 14.12 290.614 14.1084C290.606 14.0967 290.601 14.0832 290.599 14.0688V7.32722L290.598 7.32777ZM285.266 13.6335C284.888 12.2422 285.085 10.7598 285.813 9.51176C286.455 8.40987 287.47 7.56642 288.68 7.12897C288.68 7.1786 288.677 7.26674 288.677 7.32777V13.9985C288.676 14.1653 288.72 14.3291 288.804 14.4734C288.889 14.6177 289.01 14.7373 289.157 14.8195L296.302 18.8894L293.828 20.2986C293.816 20.3065 293.802 20.3113 293.788 20.3127C293.773 20.314 293.759 20.3116 293.745 20.3062L287.829 16.933C286.565 16.2113 285.644 15.0245 285.266 13.6335ZM290.697 24.6468C289.287 24.2739 288.084 23.3643 287.352 22.1173C286.707 21.017 286.474 19.728 286.695 18.4753C286.738 18.5011 286.814 18.5469 286.869 18.5778L292.721 21.9131C292.866 21.9971 293.032 22.0416 293.202 22.0416C293.371 22.0416 293.536 21.9971 293.682 21.9131L300.827 17.8426V20.6612C300.828 20.6756 300.825 20.6899 300.819 20.703C300.812 20.716 300.803 20.7274 300.792 20.736L294.876 24.1063C293.611 24.8252 292.108 25.02 290.697 24.6471L290.697 24.6468ZM304.689 21.6695C304.687 23.1093 304.107 24.49 303.076 25.5084C302.044 26.5273 300.646 27.1009 299.186 27.1039C297.898 27.1058 296.65 26.6607 295.66 25.846C295.705 25.8222 295.783 25.7799 295.834 25.749L301.686 22.4137C301.833 22.3313 301.955 22.2117 302.04 22.0671C302.124 21.9228 302.168 21.7587 302.167 21.5922V13.4521L304.641 14.8612C304.654 14.8677 304.665 14.877 304.673 14.8886C304.682 14.9003 304.687 14.9139 304.689 14.928V21.6695ZM310.197 17.2324C310.108 18.2613 309.723 19.2442 309.088 20.0651C308.454 20.8863 307.595 21.5119 306.613 21.8691V14.999C306.614 14.8328 306.57 14.669 306.486 14.5247C306.403 14.3804 306.281 14.2608 306.135 14.1781L298.99 10.1076L301.464 8.69897C301.476 8.69083 301.49 8.68622 301.505 8.68487C301.519 8.68351 301.534 8.68595 301.547 8.69165L307.463 12.0616C308.37 12.5783 309.109 13.339 309.593 14.2548C310.077 15.1707 310.286 16.2032 310.197 17.2324H310.197Z" fill="#181717"/>
</g>
<defs>
<clipPath id="clip0_482_69480">
<rect width="19" height="29" fill="white" transform="translate(37.8545)"/>
</clipPath>
<clipPath id="clip1_482_69480">
<rect width="29" height="29" fill="white" transform="translate(283.146)"/>
</clipPath>
</defs>
</svg>
