<svg width="714" height="70" viewBox="0 0 714 70" fill="none" xmlns="http://www.w3.org/2000/svg">
<g clip-path="url(#clip0_482_69356)">
<path d="M11.8775 69.9993C18.4312 69.9993 23.7501 64.7727 23.7501 58.3327V46.666H11.8775C5.32382 46.666 0.00488281 51.8927 0.00488281 58.3327C0.00488281 64.7727 5.32382 69.9993 11.8775 69.9993Z" fill="#181717"/>
<path d="M0.00488281 35.0007C0.00488281 28.5607 5.32382 23.334 11.8775 23.334H23.7501V46.6673H11.8775C5.32382 46.6673 0.00488281 41.4407 0.00488281 35.0007Z" fill="#181717"/>
<path d="M0.00488281 11.6667C0.00488281 5.22667 5.32382 0 11.8775 0H23.7501V23.3333H11.8775C5.32382 23.3333 0.00488281 18.1067 0.00488281 11.6667Z" fill="#181717"/>
<path d="M23.75 0H35.6226C42.1763 0 47.4952 5.22667 47.4952 11.6667C47.4952 18.1067 42.1763 23.3333 35.6226 23.3333H23.75V0Z" fill="#181717"/>
<path d="M47.4952 35.0007C47.4952 41.4407 42.1763 46.6673 35.6226 46.6673C29.0689 46.6673 23.75 41.4407 23.75 35.0007C23.75 28.5607 29.0689 23.334 35.6226 23.334C42.1763 23.334 47.4952 28.5607 47.4952 35.0007Z" fill="#181717"/>
</g>
<path d="M158.577 0C161.998 0 165.12 0.296587 167.944 0.883575C170.767 1.47056 173.179 2.43446 175.19 3.77527C177.202 5.11607 178.763 6.89557 179.873 9.11995C180.984 11.3443 181.536 14.0877 181.536 17.3563C181.536 20.8844 180.711 23.8256 179.067 26.1797C177.424 28.5338 174.987 30.4616 171.77 31.9631C176.199 33.205 179.505 35.38 181.688 38.4817C183.871 41.5835 184.962 45.3279 184.962 49.7087C184.962 53.2368 184.258 56.2953 182.849 58.878C181.441 61.4608 179.543 63.5678 177.157 65.199C174.771 66.8364 172.055 68.0412 169.003 68.826C165.932 69.6107 162.766 70.0061 159.593 69.9999H124.749V0H158.577ZM156.566 28.3299C159.383 28.3299 161.699 27.675 163.514 26.3712C165.329 25.0613 166.237 22.942 166.23 20.0009C166.23 18.3697 165.926 17.0288 165.323 15.9846C164.72 14.9404 163.914 14.1186 162.905 13.5316C161.896 12.9446 160.741 12.5368 159.434 12.3082C158.089 12.0796 156.725 11.9622 155.354 11.9684H140.562V28.3423L156.566 28.3299V28.3299ZM157.473 58.0315C158.965 58.0377 160.449 57.8894 161.903 57.5928C163.311 57.2963 164.555 56.8081 165.627 56.1223C166.7 55.4364 167.556 54.5034 168.197 53.3295C168.832 52.1555 169.156 50.6478 169.156 48.8189C169.156 45.229 168.115 42.6586 166.034 41.1263C163.952 39.5877 161.198 38.8216 157.778 38.8216H140.562V58.0377L157.473 58.0315V58.0315ZM204.85 56.561C206.994 58.5876 210.085 59.601 214.114 59.601C217.001 59.601 219.483 58.8966 221.564 57.494C223.645 56.0914 224.921 54.6023 225.39 53.0329H237.974C235.962 59.1128 232.872 63.4566 228.709 66.0702C224.546 68.6838 219.514 69.9938 213.607 69.9938C209.514 69.9938 205.82 69.3573 202.533 68.0845C199.246 66.8117 196.461 64.9951 194.176 62.6409C191.892 60.2868 190.128 57.4816 188.89 54.213C187.653 50.9444 187.031 47.3484 187.031 43.431C187.031 39.6434 187.666 36.1152 188.941 32.8466C190.217 29.578 192.031 26.7543 194.379 24.3693C196.727 21.9843 199.532 20.1059 202.787 18.7342C206.043 17.3625 209.653 16.6767 213.613 16.6767C218.042 16.6767 221.9 17.5108 225.194 19.1791C228.481 20.8474 231.184 23.0841 233.297 25.8955C235.41 28.7068 236.939 31.9075 237.878 35.5035C238.818 39.0996 239.154 42.8563 238.887 46.7799H201.334C201.531 51.2719 202.705 54.5405 204.85 56.561ZM221.012 29.8993C219.299 28.0704 216.697 27.1559 213.207 27.1559C210.922 27.1559 209.025 27.5329 207.521 28.2805C206.011 29.0343 204.805 29.9611 203.898 31.0733C202.99 32.1855 202.356 33.3595 201.988 34.6014C201.62 35.8434 201.398 36.9556 201.334 37.9318H224.591C223.912 34.4099 222.719 31.7283 221.012 29.8993V29.8993ZM198.885 3.55283H227.941V11.3999H198.885V3.55283V3.55283Z" fill="#181717"/>
<path d="M316.225 1.15119C316.225 0.626958 316.435 0.31525 316.962 0.31525C320.961 0.212528 328.743 0 336.425 0C356.836 0 364.408 11.2994 364.408 22.8114C364.408 39.4488 351.469 46.6677 335.581 46.6677H328.953V68.1188C328.953 68.6431 328.743 68.9548 328.113 68.9548H317.065C316.538 68.9548 316.225 68.7458 316.225 68.2216V1.15119ZM328.953 35.471C330.741 35.5772 332.109 35.5772 335.581 35.5772C344.417 35.5772 351.889 32.6479 351.889 23.1266C351.889 15.4898 346.419 10.9877 336.739 10.9877C333.056 10.9877 330.111 11.094 328.953 11.1967V35.471Z" fill="#181717"/>
<path d="M392.599 26.474C387.022 26.474 385.131 28.7764 385.131 30.9725C385.131 33.1687 386.709 34.8441 393.443 37.4582C405.438 41.854 409.541 46.5615 409.541 53.9893C409.541 63.8259 401.756 69.9998 388.817 69.9998C382.61 69.9998 377.139 68.8486 373.984 67.0705C373.457 66.7552 373.246 66.5462 373.246 65.9193V55.98C373.246 55.4558 373.667 55.2468 374.087 55.4558C378.61 58.3851 384.397 59.6426 389.131 59.6426C394.601 59.6426 397.233 57.7582 397.233 55.0378C397.233 52.3175 395.235 50.7483 388.71 48.1307C377.242 43.9438 373.14 39.2363 373.14 31.7022C373.14 23.7501 379.661 16.3223 392.813 16.3223C398.914 16.3223 403.544 17.1582 406.069 18.4157C406.596 18.7309 406.699 19.1489 406.699 19.6731V28.8791C406.699 29.4034 406.382 29.7151 405.752 29.5061C402.49 27.7279 397.229 26.4705 392.603 26.4705L392.599 26.474Z" fill="#181717"/>
<path d="M504.262 52.6509L498.715 69.1986C498.513 69.7995 498.21 69.9998 497.605 69.9998H487.522C486.917 69.9998 486.716 69.6976 486.815 68.9983L507.587 10.2293C507.99 9.22773 508.293 8.22278 508.495 4.81411C508.495 4.41349 508.696 4.11133 509.099 4.11133H523.115C523.621 4.11133 523.72 4.20979 523.822 4.71226L547.116 69.0967C547.215 69.6976 547.116 69.9998 546.512 69.9998H535.22C534.715 69.9998 534.414 69.7995 534.213 69.3989L528.365 52.6509H504.265H504.262ZM525.136 41.7187C523.02 35.0983 518.278 21.1581 516.264 14.1404H516.162C514.547 20.8593 510.516 32.5927 507.491 41.7187H525.136Z" fill="#181717"/>
<path d="M553.77 6.91919C553.77 2.80774 556.695 0 560.726 0C565.062 0 567.584 2.90959 567.584 6.91919C567.584 10.9288 564.86 13.8384 560.627 13.8384C556.395 13.8384 553.77 11.0306 553.77 6.91919ZM554.476 21.26C554.476 20.7576 554.78 20.5573 555.282 20.5573H565.97C566.574 20.5573 566.775 20.6591 566.775 21.26V69.1987C566.775 69.7996 566.574 69.9999 565.867 69.9999H555.48C554.773 69.9999 554.473 69.6978 554.473 69.0968V21.26H554.476Z" fill="#181717"/>
<g clip-path="url(#clip1_482_69356)">
<path d="M713.903 38.6312C713.511 34.9162 711.948 31.4205 709.44 28.6488C710.226 26.2921 710.498 23.7954 710.239 21.3255C709.98 18.8556 709.196 16.4688 707.939 14.3262C706.075 11.0851 703.229 8.51834 699.81 6.99764C696.391 5.47694 692.577 5.08023 688.917 5.86448C687.266 4.00664 685.237 2.5226 682.965 1.5112C680.694 0.499802 678.232 -0.0147353 675.745 0.000321137C672.004 -0.00884365 668.356 1.16883 665.328 3.3638C662.3 5.55876 660.048 8.65712 658.897 12.2117C656.459 12.7099 654.156 13.722 652.142 15.1811C650.128 16.6403 648.45 18.5119 647.219 20.6708C645.341 23.9041 644.539 27.6479 644.929 31.3655C645.32 35.0818 646.882 38.5788 649.392 41.3518C648.606 43.7085 648.334 46.2052 648.592 48.6752C648.851 51.1451 649.635 53.5312 650.892 55.6744C652.756 58.9155 655.602 61.4816 659.022 63.003C662.441 64.5237 666.255 64.9204 669.915 64.1368C671.565 65.9946 673.594 67.4787 675.866 68.4901C678.137 69.5008 680.599 70.016 683.085 70.0003C686.829 70.0101 690.479 68.8318 693.508 66.6355C696.537 64.4399 698.79 61.3389 699.94 57.7823C702.377 57.2835 704.68 56.2721 706.694 54.8129C708.708 53.3538 710.386 51.4822 711.617 49.3232C713.493 46.0913 714.293 42.3475 713.902 38.6325L713.903 38.6312ZM693.151 10.0711C695.645 10.1785 698.055 10.9915 700.102 12.4166C702.149 13.8418 703.747 15.8194 704.71 18.1178C705.672 20.4169 705.959 22.9417 705.537 25.3973C705.434 25.3338 705.252 25.2251 705.123 25.1505L691.165 17.0999C690.818 16.8969 690.422 16.7902 690.019 16.7902C689.617 16.7902 689.221 16.8969 688.873 17.0999L671.832 26.9252V20.1223C671.83 20.0869 671.837 20.0529 671.852 20.0215C671.866 19.99 671.888 19.9625 671.917 19.9416L686.026 11.8137C688.188 10.5693 690.66 9.96506 693.152 10.0718L693.151 10.0711ZM679.418 26.247L687.008 30.6212V39.3729L679.418 43.7478L671.829 39.3729V30.6238L679.418 26.247ZM662.608 17.6877C662.61 15.1955 663.322 12.7551 664.663 10.6524C666.003 8.54976 667.915 6.87195 670.175 5.81472C672.436 4.75816 674.951 4.36603 677.427 4.68418C679.903 5.00299 682.236 6.01897 684.154 7.61364C684.048 7.6719 683.862 7.77337 683.74 7.848L669.782 15.8986C669.432 16.0976 669.142 16.3857 668.939 16.7339C668.738 17.0822 668.632 17.4776 668.635 17.8802L668.625 37.5229L662.724 34.1208C662.694 34.1058 662.666 34.0829 662.646 34.0547C662.626 34.0266 662.614 33.9938 662.609 33.9591V17.6864L662.608 17.6877ZM649.891 32.9085C648.989 29.5502 649.459 25.972 651.194 22.9594C652.727 20.2997 655.147 18.2638 658.033 17.2079C658.033 17.3277 658.026 17.5404 658.026 17.6877V33.7896C658.023 34.1922 658.128 34.5876 658.33 34.9358C658.531 35.2841 658.821 35.5728 659.171 35.7711L676.212 45.5951L670.312 48.9966C670.284 49.0156 670.25 49.0273 670.215 49.0306C670.18 49.0339 670.146 49.028 670.113 49.0149L656.002 40.8727C652.989 39.1307 650.792 36.266 649.891 32.9085ZM662.844 59.4922C659.48 58.5921 656.611 56.3965 654.866 53.3865C653.327 50.7307 652.772 47.6192 653.299 44.5955C653.402 44.6577 653.583 44.7683 653.713 44.843L667.671 52.8936C668.018 53.0965 668.414 53.2039 668.817 53.2039C669.22 53.2039 669.616 53.0965 669.963 52.8936L687.004 43.0683V49.8718C687.006 49.9065 686.999 49.9412 686.985 49.9726C686.97 50.0041 686.947 50.0316 686.92 50.0525L672.81 58.1876C669.793 59.923 666.208 60.393 662.844 59.4929L662.844 59.4922ZM696.216 52.3057C696.211 55.7811 694.827 59.1139 692.367 61.572C689.907 64.0314 686.572 65.416 683.091 65.4232C680.017 65.4277 677.042 64.3535 674.682 62.387C674.788 62.3294 674.975 62.2273 675.096 62.1526L689.054 54.102C689.404 53.903 689.695 53.6143 689.897 53.2654C690.099 52.9171 690.203 52.5211 690.201 52.1192V32.4705L696.1 35.872C696.131 35.8877 696.158 35.9099 696.178 35.9381C696.198 35.9662 696.21 35.9989 696.216 36.033V52.3057ZM709.353 41.5954C709.14 44.079 708.223 46.4514 706.708 48.4329C705.194 50.4152 703.146 51.9254 700.803 52.7875V36.2045C700.806 35.8032 700.703 35.4078 700.502 35.0596C700.302 34.7113 700.013 34.4226 699.664 34.2229L682.624 24.3976L688.523 20.9975C688.552 20.9779 688.586 20.9667 688.62 20.9635C688.655 20.9602 688.69 20.9661 688.722 20.9798L702.833 29.1142C704.995 30.3613 706.756 32.1975 707.911 34.4082C709.065 36.6189 709.565 39.1111 709.352 41.5954H709.353Z" fill="#181717"/>
</g>
<defs>
<clipPath id="clip0_482_69356">
<rect width="47.5" height="70" fill="white"/>
</clipPath>
<clipPath id="clip1_482_69356">
<rect width="69.1667" height="70" fill="white" transform="translate(644.833)"/>
</clipPath>
</defs>
</svg>
